<svg viewBox="0 0 1200 630" width="1200" height="630" xmlns="http://www.w3.org/2000/svg">
  <defs>
    <linearGradient id="grad" x1="0" y1="0" x2="1" y2="0">
      <stop offset="0%" stop-color="#67EADD"/>
      <stop offset="45%" stop-color="#1D60CA"/>
      <stop offset="72%" stop-color="#C3A9FF"/>
      <stop offset="100%" stop-color="#EF80E3"/>
    </linearGradient>
    <pattern id="dots" x="0" y="0" width="24" height="24" patternUnits="userSpaceOnUse">
      <circle cx="12" cy="12" r="1.2" fill="#67EADD" opacity="0.12"/>
    </pattern>
    <clipPath id="labs-logo-clip">
      <rect width="183" height="47"/>
    </clipPath>
  </defs>

  <style>
    @import url('https://fonts.googleapis.com/css2?family=Besley:wght@600;700&amp;family=Inter:wght@400;500;600&amp;family=Nunito+Sans:wght@400;600&amp;display=swap');
    .display { font-family: 'Besley', Georgia, serif; }
    .heading { font-family: 'Inter', sans-serif; }
    .body { font-family: 'Nunito Sans', sans-serif; }
  </style>

  <rect width="1200" height="630" fill="#083763"/>
  <rect width="1200" height="630" fill="url(#dots)"/>
  <rect x="0" y="0" width="1200" height="3" fill="url(#grad)"/>

  <g transform="translate(62, 42) scale(1.15)">
    <g clip-path="url(#labs-logo-clip)">
      <path d="M59.4961 3.03149C63.9444 0.23502 69.8337 1.58181 72.6104 6.08716H72.6094C75.2917 10.4166 74.1293 16.1083 69.9854 19.0032L69.5752 19.2737C66.6082 21.1317 63.0511 21.11 60.1816 19.6624C59.9327 19.5645 59.6887 19.4976 59.4297 19.4583C59.0933 19.4071 58.7049 19.4551 58.2715 19.5813C58.0629 19.658 57.855 19.7588 57.6562 19.887L57.6484 19.8918C56.3989 20.6805 56.0148 22.3315 56.7656 23.5667L60.7246 29.9563C63.4949 34.4256 62.1663 40.3479 57.6904 43.1458C53.2424 45.9403 47.3543 44.5927 44.5781 40.0881V40.0872L40.6943 33.8167L40.5361 33.5881C39.6968 32.5005 38.1709 32.2189 37.0273 32.9504L37.0215 32.9543C36.2495 33.4403 35.7704 34.3157 35.7656 35.2366C35.7641 38.429 34.2025 41.5618 31.293 43.3772C26.845 46.1718 20.9569 44.8242 18.1807 40.3196V40.3186L3.55762 16.7473C0.787388 12.2781 2.11605 6.35572 6.5918 3.55786C11.0391 0.763372 16.9263 2.10963 19.7031 6.61255L23.6104 12.9104H23.6113C24.3948 14.1693 26.0204 14.5472 27.2354 13.802L27.2852 13.7717L27.2891 13.7698C28.0594 13.2911 28.5016 12.4579 28.54 11.5862C28.5025 8.3485 30.0906 5.18269 33.0107 3.35083L33.4316 3.10083C37.8233 0.641921 43.4337 2.04136 46.124 6.40454L50.0547 12.7483L50.2129 12.9768C51.0522 14.0643 52.5782 14.3459 53.7217 13.6145L53.7256 13.6116C53.8953 13.5042 54.0642 13.3279 54.2168 13.1174C54.3648 12.9133 54.4678 12.7203 54.5264 12.6077C54.7917 12.0976 54.958 11.6256 55.0234 11.1165C55.3581 7.65171 56.5715 4.88837 59.4922 3.03442L59.4961 3.03149Z" stroke="#F0F1FE" stroke-width="2.00547"/>
      <path d="M83.8685 19.458L78.825 4.7861H82.5469L85.5946 14.037L88.885 4.7861H92.0135L95.25 14.037L98.3246 4.7861H102.047L97.0031 19.458H93.8475L90.4492 9.55986L86.997 19.458H83.8685ZM109.815 19.7817C108.377 19.7817 107.064 19.449 105.878 18.7837C104.709 18.1185 103.774 17.2105 103.073 16.0597C102.389 14.909 102.048 13.5964 102.048 12.1221C102.048 10.6477 102.389 9.33511 103.073 8.18437C103.774 7.03364 104.709 6.12563 105.878 5.46036C107.046 4.79509 108.359 4.46245 109.815 4.46245C111.236 4.46245 112.53 4.79509 113.699 5.46036C114.868 6.12563 115.803 7.03364 116.504 8.18437C117.205 9.33511 117.556 10.6477 117.556 12.1221C117.556 13.5964 117.205 14.918 116.504 16.0867C115.803 17.2374 114.868 18.1454 113.699 18.8107C112.53 19.458 111.236 19.7817 109.815 19.7817ZM109.815 16.5452C110.588 16.5452 111.281 16.3564 111.892 15.9788C112.503 15.6012 112.98 15.0798 113.321 14.4145C113.681 13.7493 113.861 12.9851 113.861 12.1221C113.861 11.277 113.681 10.5218 113.321 9.85654C112.98 9.19127 112.503 8.66984 111.892 8.29225C111.281 7.89669 110.588 7.69891 109.815 7.69891C109.006 7.69891 108.296 7.89669 107.685 8.29225C107.073 8.66984 106.588 9.19127 106.228 9.85654C105.887 10.5218 105.716 11.277 105.716 12.1221C105.716 12.9851 105.887 13.7493 106.228 14.4145C106.588 15.0798 107.073 15.6012 107.685 15.9788C108.296 16.3564 109.006 16.5452 109.815 16.5452ZM119.156 19.458V4.7861H122.474V6.83585C122.851 6.02674 123.382 5.46036 124.065 5.13672C124.748 4.79509 125.539 4.62428 126.438 4.62428H127.301V7.75285H126.034C125.045 7.75285 124.236 8.0675 123.606 8.69681C122.995 9.30814 122.689 10.1712 122.689 11.286V19.458H119.156ZM128.165 19.458V-0.958599H131.698V10.6117L137.254 4.7861H141.65L136.229 10.6926L141.758 19.458H137.713L133.613 12.9312L131.698 15.0079V19.458H128.165ZM147.102 19.7817C145.574 19.7817 144.351 19.4041 143.434 18.6489C142.517 17.8937 142.059 16.8688 142.059 15.5743C142.059 14.3516 142.472 13.3357 143.299 12.5266C144.127 11.7175 145.403 11.1691 147.129 10.8814L151.498 10.1802V9.69472C151.498 9.06541 151.247 8.54398 150.743 8.13043C150.258 7.69891 149.611 7.48314 148.801 7.48314C148.028 7.48314 147.354 7.68991 146.779 8.10346C146.203 8.49903 145.781 9.02945 145.511 9.69472L142.625 8.29225C143.057 7.14152 143.848 6.21553 144.999 5.5143C146.149 4.81307 147.462 4.46245 148.936 4.46245C150.141 4.46245 151.193 4.68721 152.092 5.13672C153.009 5.58622 153.728 6.20654 154.249 6.99767C154.771 7.77083 155.032 8.66984 155.032 9.69472V19.458H151.687V17.9207C150.537 19.1613 149.008 19.7817 147.102 19.7817ZM145.727 15.4394C145.727 15.9429 145.916 16.3474 146.293 16.6531C146.671 16.9408 147.156 17.0846 147.75 17.0846C148.864 17.0846 149.763 16.743 150.447 16.0597C151.148 15.3585 151.498 14.4955 151.498 13.4706V12.8772L147.804 13.4975C146.419 13.7493 145.727 14.3966 145.727 15.4394ZM163.644 19.6198C161.989 19.6198 160.704 19.1703 159.787 18.2713C158.888 17.3543 158.438 16.0687 158.438 14.4145V7.94164H155.903V4.7861H156.173C156.892 4.7861 157.449 4.59731 157.845 4.21972C158.241 3.84214 158.438 3.29374 158.438 2.57453V1.44177H161.971V4.7861H165.343V7.94164H161.971V14.2257C161.971 14.9629 162.169 15.5293 162.565 15.9249C162.96 16.3204 163.59 16.5182 164.453 16.5182C164.722 16.5182 165.037 16.4913 165.397 16.4373V19.458C165.145 19.494 164.857 19.5299 164.534 19.5659C164.21 19.6019 163.913 19.6198 163.644 19.6198ZM174.06 19.7817C172.621 19.7817 171.309 19.449 170.122 18.7837C168.953 18.1185 168.018 17.2105 167.317 16.0597C166.634 14.909 166.292 13.5964 166.292 12.1221C166.292 10.6477 166.634 9.33511 167.317 8.18437C168.018 7.03364 168.953 6.12563 170.122 5.46036C171.291 4.79509 172.603 4.46245 174.06 4.46245C175.48 4.46245 176.775 4.79509 177.943 5.46036C179.112 6.12563 180.047 7.03364 180.748 8.18437C181.45 9.33511 181.8 10.6477 181.8 12.1221C181.8 13.5964 181.45 14.918 180.748 16.0867C180.047 17.2374 179.112 18.1454 177.943 18.8107C176.775 19.458 175.48 19.7817 174.06 19.7817ZM174.06 16.5452C174.833 16.5452 175.525 16.3564 176.136 15.9788C176.748 15.6012 177.224 15.0798 177.566 14.4145C177.925 13.7493 178.105 12.9851 178.105 12.1221C178.105 11.277 177.925 10.5218 177.566 9.85654C177.224 9.19127 176.748 8.66984 176.136 8.29225C175.525 7.89669 174.833 7.69891 174.06 7.69891C173.251 7.69891 172.54 7.89669 171.929 8.29225C171.318 8.66984 170.832 9.19127 170.473 9.85654C170.131 10.5218 169.96 11.277 169.96 12.1221C169.96 12.9851 170.131 13.7493 170.473 14.4145C170.832 15.0798 171.318 15.6012 171.929 15.9788C172.54 16.3564 173.251 16.5452 174.06 16.5452ZM80.1735 41.458V21.0414H83.7066V41.458H80.1735ZM90.3401 41.7817C88.8118 41.7817 87.5891 41.4041 86.6721 40.6489C85.7551 39.8937 85.2966 38.8688 85.2966 37.5743C85.2966 36.3516 85.7102 35.3357 86.5373 34.5266C87.3644 33.7175 88.641 33.1691 90.3671 32.8814L94.7363 32.1802V31.6947C94.7363 31.0654 94.4846 30.544 93.9811 30.1304C93.4956 29.6989 92.8483 29.4831 92.0392 29.4831C91.2661 29.4831 90.5918 29.6899 90.0165 30.1035C89.4411 30.499 89.0185 31.0294 88.7488 31.6947L85.863 30.2923C86.2945 29.1415 87.0857 28.2155 88.2364 27.5143C89.3871 26.8131 90.6997 26.4625 92.1741 26.4625C93.3788 26.4625 94.4306 26.6872 95.3296 27.1367C96.2466 27.5862 96.9658 28.2065 97.4873 28.9977C98.0087 29.7708 98.2694 30.6698 98.2694 31.6947V41.458H94.9251V39.9207C93.7743 41.1613 92.246 41.7817 90.3401 41.7817ZM88.9646 37.4394C88.9646 37.9429 89.1534 38.3474 89.531 38.6531C89.9086 38.9408 90.394 39.0846 90.9874 39.0846C92.1022 39.0846 93.0012 38.743 93.6844 38.0597C94.3857 37.3585 94.7363 36.4955 94.7363 35.4706V34.8772L91.0413 35.4975C89.6568 35.7493 88.9646 36.3966 88.9646 37.4394ZM108.466 41.7817C107.513 41.7817 106.623 41.6198 105.796 41.2962C104.987 40.9546 104.313 40.4601 103.773 39.8128V41.458H100.456V21.0414H103.989V28.2695C104.511 27.6941 105.149 27.2536 105.904 26.9479C106.677 26.6243 107.54 26.4625 108.493 26.4625C109.878 26.4625 111.127 26.8041 112.242 27.4873C113.357 28.1706 114.238 29.0876 114.885 30.2383C115.551 31.3891 115.883 32.6836 115.883 34.1221C115.883 35.5605 115.56 36.864 114.912 38.0328C114.265 39.1835 113.384 40.1005 112.269 40.7837C111.154 41.449 109.887 41.7817 108.466 41.7817ZM108.062 38.5452C108.871 38.5452 109.581 38.3564 110.192 37.9788C110.822 37.6012 111.316 37.0798 111.676 36.4145C112.035 35.7493 112.215 34.9851 112.215 34.1221C112.215 33.277 112.035 32.5218 111.676 31.8565C111.316 31.1913 110.822 30.6698 110.192 30.2923C109.581 29.8967 108.871 29.6989 108.062 29.6989C107.271 29.6989 106.569 29.8967 105.958 30.2923C105.347 30.6698 104.861 31.1913 104.502 31.8565C104.16 32.5218 103.989 33.277 103.989 34.1221C103.989 34.9851 104.16 35.7493 104.502 36.4145C104.861 37.0798 105.347 37.6012 105.958 37.9788C106.569 38.3564 107.271 38.5452 108.062 38.5452ZM123.081 41.7817C121.517 41.7817 120.15 41.4131 118.981 40.6759C117.831 39.9207 117.04 38.9048 116.608 37.6282L119.251 36.3606C119.629 37.1877 120.15 37.835 120.815 38.3025C121.499 38.77 122.254 39.0037 123.081 39.0037C123.71 39.0037 124.214 38.8688 124.591 38.5991C124.987 38.3115 125.185 37.9249 125.185 37.4394C125.185 37.0079 125.014 36.6753 124.672 36.4415C124.349 36.2078 123.953 36.028 123.485 35.9021L121.085 35.2278C119.844 34.8862 118.901 34.3468 118.253 33.6096C117.624 32.8544 117.309 31.9734 117.309 30.9665C117.309 30.0675 117.543 29.2854 118.01 28.6201C118.478 27.9368 119.116 27.4064 119.925 27.0288C120.734 26.6512 121.669 26.4625 122.73 26.4625C124.115 26.4625 125.337 26.8041 126.398 27.4873C127.459 28.1526 128.214 29.0786 128.664 30.2653L125.967 31.5329C125.715 30.8676 125.292 30.3372 124.699 29.9416C124.106 29.5461 123.441 29.3483 122.703 29.3483C122.11 29.3483 121.642 29.4831 121.301 29.7528C120.959 30.0226 120.788 30.3732 120.788 30.8047C120.788 31.2182 120.941 31.5419 121.247 31.7756C121.571 32.0094 121.993 32.1982 122.515 32.342L124.861 33.0432C126.066 33.4028 126.992 33.9512 127.639 34.6884C128.304 35.4076 128.637 36.2797 128.637 37.3046C128.637 38.2036 128.403 38.9857 127.936 39.651C127.468 40.3163 126.812 40.8377 125.967 41.2153C125.14 41.5929 124.178 41.7817 123.081 41.7817Z" fill="#F5F5F5"/>
      <path d="M11.6797 10.7654L26.5114 35.0462L38.2998 11.4348L52.9045 35.0462" stroke="#67EADD" stroke-width="0.966808" stroke-miterlimit="10"/>
      <path d="M64.4164 11.4348L27.293 35.0462" stroke="#67EADD" stroke-width="0.966808" stroke-miterlimit="10"/>
      <path d="M64.4161 14.0435C66.0693 14.0435 67.4094 12.7034 67.4094 11.0503C67.4094 9.39714 66.0693 8.05701 64.4161 8.05701C62.763 8.05701 61.4229 9.39714 61.4229 11.0503C61.4229 12.7034 62.763 14.0435 64.4161 14.0435Z" fill="#FFC900"/>
      <path d="M11.9112 14.4282C13.5644 14.4282 14.9045 13.0881 14.9045 11.4349C14.9045 9.78178 13.5644 8.44165 11.9112 8.44165C10.2581 8.44165 8.91797 9.78178 8.91797 11.4349C8.91797 13.0881 10.2581 14.4282 11.9112 14.4282Z" fill="#67EADD"/>
      <path d="M26.5118 38.0394C28.165 38.0394 29.5051 36.6993 29.5051 35.0461C29.5051 33.393 28.165 32.0529 26.5118 32.0529C24.8587 32.0529 23.5186 33.393 23.5186 35.0461C23.5186 36.6993 24.8587 38.0394 26.5118 38.0394Z" fill="#C3A9FF"/>
      <path d="M38.2999 14.4282C39.953 14.4282 41.2932 13.0881 41.2932 11.4349C41.2932 9.78178 39.953 8.44165 38.2999 8.44165C36.6468 8.44165 35.3066 9.78178 35.3066 11.4349C35.3066 13.0881 36.6468 14.4282 38.2999 14.4282Z" fill="#EF7FE3"/>
      <path d="M52.9054 38.0394C54.5585 38.0394 55.8986 36.6993 55.8986 35.0461C55.8986 33.393 54.5585 32.0529 52.9054 32.0529C51.2522 32.0529 49.9121 33.393 49.9121 35.0461C49.9121 36.6993 51.2522 38.0394 52.9054 38.0394Z" fill="#FB9867"/>
    </g>
  </g>

  <text x="72" y="230" class="display" font-size="82" font-weight="700"><tspan fill="#67EADD">Ship</tspan><tspan fill="#FFFFFF"> automations</tspan></text>
  <text x="72" y="330" class="display" font-size="82" font-weight="700" fill="#FFFFFF">from</text>
  <text x="72" y="430" class="display" font-size="82" font-weight="700" fill="#EF80E3">your terminal</text>

  <text x="72" y="510" class="body" font-size="22" fill="#FFFFFF" opacity="0.65">pull · diff · lint · push · MCP — one CLI for humans and agents</text>

  <rect x="72" y="565" width="200" height="2" fill="url(#grad)" opacity="0.6"/>
  <text x="72" y="600" class="heading" font-size="16" fill="#FFFFFF" opacity="0.5">wk</text>

  <text x="1030" y="200" font-size="28" fill="#67EADD" opacity="0.25">&#x2726;</text>
  <text x="1090" y="370" font-size="20" fill="#C3A9FF" opacity="0.2">&#x2726;</text>
  <text x="960" y="440" font-size="16" fill="#EF80E3" opacity="0.18">&#x2726;</text>
</svg>
